<svg xmlns="http://www.w3.org/2000/svg" viewBox="0 0 800 500" width="800" height="500">
  <defs>
    <!-- Wood gradient for stakes -->
    <linearGradient id="woodGrad" x1="0" y1="0" x2="1" y2="0">
      <stop offset="0%" stop-color="#8B6914"/>
      <stop offset="30%" stop-color="#A0722D"/>
      <stop offset="50%" stop-color="#B8862D"/>
      <stop offset="70%" stop-color="#A0722D"/>
      <stop offset="100%" stop-color="#7A5A10"/>
    </linearGradient>
    <!-- Darker wood for stake tops -->
    <linearGradient id="woodTopGrad" x1="0" y1="0" x2="1" y2="0">
      <stop offset="0%" stop-color="#6B4F0E"/>
      <stop offset="50%" stop-color="#8B6914"/>
      <stop offset="100%" stop-color="#6B4F0E"/>
    </linearGradient>
    <!-- Leaf gradient -->
    <linearGradient id="leafGrad1" x1="0" y1="0" x2="1" y2="1">
      <stop offset="0%" stop-color="#4CAF50"/>
      <stop offset="100%" stop-color="#2D5016"/>
    </linearGradient>
    <linearGradient id="leafGrad2" x1="0" y1="0" x2="0.5" y2="1">
      <stop offset="0%" stop-color="#66BB6A"/>
      <stop offset="100%" stop-color="#388E3C"/>
    </linearGradient>
    <!-- Ground gradient -->
    <linearGradient id="groundGrad" x1="0" y1="0" x2="0" y2="1">
      <stop offset="0%" stop-color="#8D6E3F"/>
      <stop offset="40%" stop-color="#6B5230"/>
      <stop offset="100%" stop-color="#5A4425"/>
    </linearGradient>
    <!-- Sky gradient -->
    <linearGradient id="skyGrad" x1="0" y1="0" x2="0" y2="1">
      <stop offset="0%" stop-color="#E8F4FD"/>
      <stop offset="100%" stop-color="#B3E5FC"/>
    </linearGradient>
    <!-- Grape gradient -->
    <linearGradient id="grapeGrad" x1="0.3" y1="0" x2="0.8" y2="1">
      <stop offset="0%" stop-color="#7B1FA2"/>
      <stop offset="50%" stop-color="#5C2D91"/>
      <stop offset="100%" stop-color="#4A148C"/>
    </linearGradient>
    <linearGradient id="grapeHighlight" x1="0.2" y1="0.1" x2="0.8" y2="0.9">
      <stop offset="0%" stop-color="#AB47BC" stop-opacity="0.6"/>
      <stop offset="100%" stop-color="#7B1FA2" stop-opacity="0"/>
    </linearGradient>
    <!-- Grass gradient -->
    <linearGradient id="grassGrad" x1="0" y1="0" x2="0" y2="1">
      <stop offset="0%" stop-color="#66BB6A"/>
      <stop offset="100%" stop-color="#43A047"/>
    </linearGradient>
    <!-- Stake pointed top template -->
    <filter id="woodTexture">
      <feTurbulence type="fractalNoise" baseFrequency="0.04 0.8" numOctaves="4" result="noise"/>
      <feColorMatrix type="saturate" values="0" in="noise" result="grayNoise"/>
      <feBlend in="SourceGraphic" in2="grayNoise" mode="multiply" result="textured"/>
      <feComposite in="textured" in2="SourceGraphic" operator="in"/>
    </filter>
  </defs>

  <!-- Sky background -->
  <rect x="0" y="0" width="800" height="500" fill="url(#skyGrad)"/>

  <!-- Distant hills -->
  <path d="M0,340 Q100,290 200,310 Q300,280 400,300 Q500,270 600,290 Q700,275 800,310 L800,400 L0,400Z" fill="#81C784" opacity="0.3"/>
  <path d="M0,360 Q150,320 250,340 Q380,310 500,335 Q620,305 750,330 L800,340 L800,400 L0,400Z" fill="#66BB6A" opacity="0.3"/>

  <!-- Grass area -->
  <rect x="0" y="380" width="800" height="30" fill="url(#grassGrad)"/>

  <!-- Ground/soil -->
  <rect x="0" y="400" width="800" height="100" fill="url(#groundGrad)"/>
  <!-- Ground texture lines -->
  <path d="M0,410 Q100,408 200,412 Q300,410 400,414 Q500,409 600,413 Q700,411 800,410" stroke="#5A4425" stroke-width="0.5" fill="none" opacity="0.4"/>
  <path d="M0,430 Q80,428 180,432 Q280,429 380,433 Q480,430 580,434 Q680,431 800,430" stroke="#5A4425" stroke-width="0.5" fill="none" opacity="0.3"/>

  <!-- Small grass tufts along ground line -->
  <g fill="#4CAF50" opacity="0.7">
    <path d="M30,400 Q32,385 34,400 Q36,388 38,400"/>
    <path d="M120,400 Q123,382 126,400 Q128,386 131,400"/>
    <path d="M250,400 Q252,387 254,400"/>
    <path d="M370,400 Q372,384 374,400 Q376,388 378,400"/>
    <path d="M500,400 Q502,386 504,400 Q507,390 509,400"/>
    <path d="M630,400 Q632,383 634,400"/>
    <path d="M720,400 Q722,386 724,400 Q727,389 729,400"/>
  </g>

  <!-- === STAKE 1 (leftmost) === -->
  <g>
    <!-- Stake body -->
    <rect x="95" y="160" width="18" height="250" fill="url(#woodGrad)" rx="2"/>
    <!-- Pointed top -->
    <polygon points="95,160 104,130 113,160" fill="url(#woodTopGrad)"/>
    <!-- Wood grain lines -->
    <line x1="100" y1="170" x2="100" y2="400" stroke="#6B4F0E" stroke-width="0.5" opacity="0.4"/>
    <line x1="106" y1="165" x2="106" y2="400" stroke="#6B4F0E" stroke-width="0.5" opacity="0.3"/>
    <!-- Stake shadow -->
    <rect x="113" y="395" width="8" height="6" fill="#5A4425" opacity="0.3" rx="1"/>
  </g>

  <!-- === STAKE 2 === -->
  <g>
    <rect x="255" y="150" width="18" height="260" fill="url(#woodGrad)" rx="2"/>
    <polygon points="255,150 264,118 273,150" fill="url(#woodTopGrad)"/>
    <line x1="260" y1="158" x2="260" y2="400" stroke="#6B4F0E" stroke-width="0.5" opacity="0.4"/>
    <line x1="267" y1="155" x2="267" y2="400" stroke="#6B4F0E" stroke-width="0.5" opacity="0.3"/>
    <rect x="273" y="395" width="8" height="6" fill="#5A4425" opacity="0.3" rx="1"/>
  </g>

  <!-- === STAKE 3 (center) === -->
  <g>
    <rect x="415" y="145" width="20" height="265" fill="url(#woodGrad)" rx="2"/>
    <polygon points="415,145 425,110 435,145" fill="url(#woodTopGrad)"/>
    <line x1="420" y1="152" x2="420" y2="400" stroke="#6B4F0E" stroke-width="0.5" opacity="0.4"/>
    <line x1="428" y1="150" x2="428" y2="400" stroke="#6B4F0E" stroke-width="0.5" opacity="0.3"/>
    <rect x="435" y="395" width="9" height="6" fill="#5A4425" opacity="0.3" rx="1"/>
  </g>

  <!-- === STAKE 4 === -->
  <g>
    <rect x="575" y="150" width="18" height="260" fill="url(#woodGrad)" rx="2"/>
    <polygon points="575,150 584,118 593,150" fill="url(#woodTopGrad)"/>
    <line x1="580" y1="158" x2="580" y2="400" stroke="#6B4F0E" stroke-width="0.5" opacity="0.4"/>
    <line x1="587" y1="155" x2="587" y2="400" stroke="#6B4F0E" stroke-width="0.5" opacity="0.3"/>
    <rect x="593" y="395" width="8" height="6" fill="#5A4425" opacity="0.3" rx="1"/>
  </g>

  <!-- === STAKE 5 (rightmost) === -->
  <g>
    <rect x="715" y="155" width="18" height="255" fill="url(#woodGrad)" rx="2"/>
    <polygon points="715,155 724,125 733,155" fill="url(#woodTopGrad)"/>
    <line x1="720" y1="163" x2="720" y2="400" stroke="#6B4F0E" stroke-width="0.5" opacity="0.4"/>
    <line x1="727" y1="160" x2="727" y2="400" stroke="#6B4F0E" stroke-width="0.5" opacity="0.3"/>
    <rect x="733" y="395" width="8" height="6" fill="#5A4425" opacity="0.3" rx="1"/>
  </g>

  <!-- === WIRE SYSTEM === -->
  <!-- Top wire -->
  <line x1="60" y1="200" x2="770" y2="195" stroke="#9E9E9E" stroke-width="2"/>
  <!-- Middle wire -->
  <line x1="60" y1="270" x2="770" y2="268" stroke="#9E9E9E" stroke-width="2"/>
  <!-- Bottom wire -->
  <line x1="60" y1="340" x2="770" y2="338" stroke="#9E9E9E" stroke-width="2"/>

  <!-- Wire attachment clips on stakes -->
  <g fill="#757575">
    <!-- Stake 1 clips -->
    <rect x="93" y="197" width="22" height="6" rx="1" opacity="0.6"/>
    <rect x="93" y="267" width="22" height="6" rx="1" opacity="0.6"/>
    <rect x="93" y="337" width="22" height="6" rx="1" opacity="0.6"/>
    <!-- Stake 2 clips -->
    <rect x="253" y="196" width="22" height="6" rx="1" opacity="0.6"/>
    <rect x="253" y="267" width="22" height="6" rx="1" opacity="0.6"/>
    <rect x="253" y="337" width="22" height="6" rx="1" opacity="0.6"/>
    <!-- Stake 3 clips -->
    <rect x="413" y="195" width="24" height="6" rx="1" opacity="0.6"/>
    <rect x="413" y="266" width="24" height="6" rx="1" opacity="0.6"/>
    <rect x="413" y="337" width="24" height="6" rx="1" opacity="0.6"/>
    <!-- Stake 4 clips -->
    <rect x="573" y="195" width="22" height="6" rx="1" opacity="0.6"/>
    <rect x="573" y="266" width="22" height="6" rx="1" opacity="0.6"/>
    <rect x="573" y="337" width="22" height="6" rx="1" opacity="0.6"/>
    <!-- Stake 5 clips -->
    <rect x="713" y="195" width="22" height="6" rx="1" opacity="0.6"/>
    <rect x="713" y="266" width="22" height="6" rx="1" opacity="0.6"/>
    <rect x="713" y="337" width="22" height="6" rx="1" opacity="0.6"/>
  </g>

  <!-- === VINE MAIN TRUNKS (brown, climbing stakes) === -->
  <!-- Vine on stake 1 -->
  <path d="M104,400 Q100,350 104,300 Q108,250 102,200" stroke="#6D4C2A" stroke-width="4" fill="none" stroke-linecap="round"/>
  <!-- Vine on stake 2 -->
  <path d="M264,400 Q260,360 264,310 Q268,260 262,200" stroke="#6D4C2A" stroke-width="4" fill="none" stroke-linecap="round"/>
  <!-- Vine on stake 3 -->
  <path d="M425,400 Q421,355 425,300 Q429,245 423,195" stroke="#6D4C2A" stroke-width="4.5" fill="none" stroke-linecap="round"/>
  <!-- Vine on stake 4 -->
  <path d="M584,400 Q580,355 584,305 Q588,255 582,200" stroke="#6D4C2A" stroke-width="4" fill="none" stroke-linecap="round"/>
  <!-- Vine on stake 5 -->
  <path d="M724,400 Q720,360 724,310 Q728,260 722,200" stroke="#6D4C2A" stroke-width="4" fill="none" stroke-linecap="round"/>

  <!-- === HORIZONTAL VINE CORDONS (along wires) === -->
  <!-- Between stake 1 and 2, top wire -->
  <path d="M110,200 Q150,194 180,198 Q210,193 240,197 L260,198" stroke="#5D4037" stroke-width="3" fill="none" stroke-linecap="round"/>
  <!-- Between stake 2 and 3, top wire -->
  <path d="M270,197 Q310,192 350,196 Q390,191 410,195" stroke="#5D4037" stroke-width="3" fill="none" stroke-linecap="round"/>
  <!-- Between stake 3 and 4, top wire -->
  <path d="M435,195 Q480,190 520,194 Q555,189 575,194" stroke="#5D4037" stroke-width="3" fill="none" stroke-linecap="round"/>
  <!-- Between stake 4 and 5, top wire -->
  <path d="M593,195 Q630,190 670,194 Q700,189 715,193" stroke="#5D4037" stroke-width="3" fill="none" stroke-linecap="round"/>

  <!-- Between stakes, middle wire -->
  <path d="M110,270 Q180,264 260,268" stroke="#5D4037" stroke-width="2.5" fill="none" stroke-linecap="round"/>
  <path d="M270,268 Q340,262 415,266" stroke="#5D4037" stroke-width="2.5" fill="none" stroke-linecap="round"/>
  <path d="M435,266 Q510,261 575,265" stroke="#5D4037" stroke-width="2.5" fill="none" stroke-linecap="round"/>
  <path d="M593,266 Q650,261 715,265" stroke="#5D4037" stroke-width="2.5" fill="none" stroke-linecap="round"/>

  <!-- === GRAPE LEAVES along top wire === -->
  <!-- Leaf cluster between stake 1-2 -->
  <g transform="translate(140,178)">
    <path d="M0,0 Q-12,-15 -5,-25 Q0,-20 5,-25 Q12,-15 0,0Z" fill="url(#leafGrad1)"/>
    <line x1="0" y1="0" x2="0" y2="-15" stroke="#2D5016" stroke-width="0.7"/>
  </g>
  <g transform="translate(160,182) rotate(-15)">
    <path d="M0,0 Q-14,-16 -6,-28 Q0,-22 6,-28 Q14,-16 0,0Z" fill="url(#leafGrad2)"/>
    <line x1="0" y1="0" x2="0" y2="-16" stroke="#2D5016" stroke-width="0.7"/>
  </g>
  <g transform="translate(185,175) rotate(10)">
    <path d="M0,0 Q-11,-14 -4,-24 Q0,-19 4,-24 Q11,-14 0,0Z" fill="url(#leafGrad1)"/>
    <line x1="0" y1="0" x2="0" y2="-14" stroke="#2D5016" stroke-width="0.7"/>
  </g>
  <g transform="translate(210,180) rotate(-8)">
    <path d="M0,0 Q-13,-15 -5,-26 Q0,-20 5,-26 Q13,-15 0,0Z" fill="url(#leafGrad2)"/>
    <line x1="0" y1="0" x2="0" y2="-15" stroke="#2D5016" stroke-width="0.7"/>
  </g>
  <g transform="translate(230,176) rotate(12)">
    <path d="M0,0 Q-10,-13 -4,-22 Q0,-17 4,-22 Q10,-13 0,0Z" fill="url(#leafGrad1)"/>
    <line x1="0" y1="0" x2="0" y2="-13" stroke="#2D5016" stroke-width="0.7"/>
  </g>

  <!-- Leaf cluster between stake 2-3 -->
  <g transform="translate(300,174) rotate(5)">
    <path d="M0,0 Q-14,-17 -6,-28 Q0,-22 6,-28 Q14,-17 0,0Z" fill="url(#leafGrad2)"/>
    <line x1="0" y1="0" x2="0" y2="-16" stroke="#2D5016" stroke-width="0.7"/>
  </g>
  <g transform="translate(325,178) rotate(-10)">
    <path d="M0,0 Q-12,-15 -5,-25 Q0,-20 5,-25 Q12,-15 0,0Z" fill="url(#leafGrad1)"/>
    <line x1="0" y1="0" x2="0" y2="-15" stroke="#2D5016" stroke-width="0.7"/>
  </g>
  <g transform="translate(350,172) rotate(8)">
    <path d="M0,0 Q-13,-16 -5,-27 Q0,-21 5,-27 Q13,-16 0,0Z" fill="url(#leafGrad2)"/>
    <line x1="0" y1="0" x2="0" y2="-16" stroke="#2D5016" stroke-width="0.7"/>
  </g>
  <g transform="translate(375,176) rotate(-5)">
    <path d="M0,0 Q-11,-14 -4,-23 Q0,-18 4,-23 Q11,-14 0,0Z" fill="url(#leafGrad1)"/>
    <line x1="0" y1="0" x2="0" y2="-14" stroke="#2D5016" stroke-width="0.7"/>
  </g>
  <g transform="translate(395,173) rotate(15)">
    <path d="M0,0 Q-12,-15 -5,-25 Q0,-19 5,-25 Q12,-15 0,0Z" fill="url(#leafGrad2)"/>
    <line x1="0" y1="0" x2="0" y2="-15" stroke="#2D5016" stroke-width="0.7"/>
  </g>

  <!-- Leaf cluster between stake 3-4 -->
  <g transform="translate(460,172) rotate(-7)">
    <path d="M0,0 Q-13,-16 -5,-27 Q0,-21 5,-27 Q13,-16 0,0Z" fill="url(#leafGrad1)"/>
    <line x1="0" y1="0" x2="0" y2="-16" stroke="#2D5016" stroke-width="0.7"/>
  </g>
  <g transform="translate(490,176) rotate(10)">
    <path d="M0,0 Q-14,-17 -6,-28 Q0,-22 6,-28 Q14,-17 0,0Z" fill="url(#leafGrad2)"/>
    <line x1="0" y1="0" x2="0" y2="-17" stroke="#2D5016" stroke-width="0.7"/>
  </g>
  <g transform="translate(520,170) rotate(-12)">
    <path d="M0,0 Q-11,-14 -4,-23 Q0,-18 4,-23 Q11,-14 0,0Z" fill="url(#leafGrad1)"/>
    <line x1="0" y1="0" x2="0" y2="-14" stroke="#2D5016" stroke-width="0.7"/>
  </g>
  <g transform="translate(545,175) rotate(6)">
    <path d="M0,0 Q-12,-15 -5,-25 Q0,-19 5,-25 Q12,-15 0,0Z" fill="url(#leafGrad2)"/>
    <line x1="0" y1="0" x2="0" y2="-15" stroke="#2D5016" stroke-width="0.7"/>
  </g>

  <!-- Leaf cluster between stake 4-5 -->
  <g transform="translate(625,172) rotate(8)">
    <path d="M0,0 Q-13,-16 -5,-26 Q0,-20 5,-26 Q13,-16 0,0Z" fill="url(#leafGrad1)"/>
    <line x1="0" y1="0" x2="0" y2="-16" stroke="#2D5016" stroke-width="0.7"/>
  </g>
  <g transform="translate(655,176) rotate(-6)">
    <path d="M0,0 Q-14,-17 -6,-28 Q0,-22 6,-28 Q14,-17 0,0Z" fill="url(#leafGrad2)"/>
    <line x1="0" y1="0" x2="0" y2="-17" stroke="#2D5016" stroke-width="0.7"/>
  </g>
  <g transform="translate(685,170) rotate(11)">
    <path d="M0,0 Q-11,-14 -4,-23 Q0,-18 4,-23 Q11,-14 0,0Z" fill="url(#leafGrad1)"/>
    <line x1="0" y1="0" x2="0" y2="-14" stroke="#2D5016" stroke-width="0.7"/>
  </g>

  <!-- === LEAVES along middle wire === -->
  <g transform="translate(150,248) rotate(10)">
    <path d="M0,0 Q-10,-12 -4,-20 Q0,-16 4,-20 Q10,-12 0,0Z" fill="url(#leafGrad2)"/>
  </g>
  <g transform="translate(200,252) rotate(-8)">
    <path d="M0,0 Q-11,-13 -4,-22 Q0,-17 4,-22 Q11,-13 0,0Z" fill="url(#leafGrad1)"/>
  </g>
  <g transform="translate(310,246) rotate(6)">
    <path d="M0,0 Q-10,-12 -4,-20 Q0,-16 4,-20 Q10,-12 0,0Z" fill="url(#leafGrad2)"/>
  </g>
  <g transform="translate(360,250) rotate(-12)">
    <path d="M0,0 Q-11,-13 -4,-22 Q0,-17 4,-22 Q11,-13 0,0Z" fill="url(#leafGrad1)"/>
  </g>
  <g transform="translate(470,246) rotate(9)">
    <path d="M0,0 Q-10,-12 -4,-20 Q0,-16 4,-20 Q10,-12 0,0Z" fill="url(#leafGrad2)"/>
  </g>
  <g transform="translate(530,250) rotate(-5)">
    <path d="M0,0 Q-11,-13 -4,-22 Q0,-17 4,-22 Q11,-13 0,0Z" fill="url(#leafGrad1)"/>
  </g>
  <g transform="translate(640,248) rotate(7)">
    <path d="M0,0 Q-10,-12 -4,-20 Q0,-16 4,-20 Q10,-12 0,0Z" fill="url(#leafGrad2)"/>
  </g>
  <g transform="translate(690,252) rotate(-10)">
    <path d="M0,0 Q-11,-13 -4,-22 Q0,-17 4,-22 Q11,-13 0,0Z" fill="url(#leafGrad1)"/>
  </g>

  <!-- === GRAPE CLUSTERS === -->
  <!-- Grape cluster 1 (between stake 1-2) -->
  <g transform="translate(175,210)">
    <!-- Stem -->
    <path d="M0,-5 Q2,0 0,5" stroke="#5D4037" stroke-width="1.5" fill="none"/>
    <!-- Grapes -->
    <circle cx="-6" cy="8" r="5.5" fill="url(#grapeGrad)"/>
    <circle cx="6" cy="8" r="5.5" fill="url(#grapeGrad)"/>
    <circle cx="0" cy="7" r="5.5" fill="url(#grapeGrad)"/>
    <circle cx="-4" cy="17" r="5" fill="url(#grapeGrad)"/>
    <circle cx="4" cy="17" r="5" fill="url(#grapeGrad)"/>
    <circle cx="0" cy="15" r="5" fill="url(#grapeGrad)"/>
    <circle cx="-2" cy="25" r="4.5" fill="url(#grapeGrad)"/>
    <circle cx="3" cy="24" r="4.5" fill="url(#grapeGrad)"/>
    <circle cx="0" cy="31" r="4" fill="url(#grapeGrad)"/>
    <!-- Highlights -->
    <circle cx="-5" cy="6" r="2" fill="white" opacity="0.2"/>
    <circle cx="1" cy="5" r="2" fill="white" opacity="0.2"/>
    <circle cx="-3" cy="15" r="1.5" fill="white" opacity="0.15"/>
  </g>

  <!-- Grape cluster 2 (between stake 2-3) -->
  <g transform="translate(340,205)">
    <path d="M0,-5 Q-2,0 0,5" stroke="#5D4037" stroke-width="1.5" fill="none"/>
    <circle cx="-5" cy="8" r="5" fill="url(#grapeGrad)"/>
    <circle cx="5" cy="8" r="5" fill="url(#grapeGrad)"/>
    <circle cx="0" cy="7" r="5" fill="url(#grapeGrad)"/>
    <circle cx="-3" cy="16" r="5" fill="url(#grapeGrad)"/>
    <circle cx="4" cy="16" r="5" fill="url(#grapeGrad)"/>
    <circle cx="0" cy="14" r="5" fill="url(#grapeGrad)"/>
    <circle cx="-1" cy="23" r="4.5" fill="url(#grapeGrad)"/>
    <circle cx="3" cy="22" r="4" fill="url(#grapeGrad)"/>
    <circle cx="1" cy="28" r="3.5" fill="url(#grapeGrad)"/>
    <circle cx="-4" cy="6" r="2" fill="white" opacity="0.2"/>
    <circle cx="2" cy="5" r="1.5" fill="white" opacity="0.15"/>
  </g>

  <!-- Grape cluster 3 (between stake 3-4, larger) -->
  <g transform="translate(500,202)">
    <path d="M0,-5 Q2,0 0,6" stroke="#5D4037" stroke-width="1.5" fill="none"/>
    <circle cx="-7" cy="9" r="5.5" fill="url(#grapeGrad)"/>
    <circle cx="7" cy="9" r="5.5" fill="url(#grapeGrad)"/>
    <circle cx="0" cy="8" r="5.5" fill="url(#grapeGrad)"/>
    <circle cx="-5" cy="18" r="5.5" fill="url(#grapeGrad)"/>
    <circle cx="5" cy="18" r="5.5" fill="url(#grapeGrad)"/>
    <circle cx="0" cy="16" r="5.5" fill="url(#grapeGrad)"/>
    <circle cx="-3" cy="26" r="5" fill="url(#grapeGrad)"/>
    <circle cx="4" cy="26" r="5" fill="url(#grapeGrad)"/>
    <circle cx="0" cy="33" r="4.5" fill="url(#grapeGrad)"/>
    <circle cx="1" cy="39" r="3.5" fill="url(#grapeGrad)"/>
    <circle cx="-6" cy="7" r="2" fill="white" opacity="0.2"/>
    <circle cx="1" cy="6" r="2" fill="white" opacity="0.2"/>
    <circle cx="-4" cy="16" r="1.5" fill="white" opacity="0.15"/>
  </g>

  <!-- Grape cluster 4 (between stake 4-5) -->
  <g transform="translate(650,208)">
    <path d="M0,-5 Q-1,0 0,5" stroke="#5D4037" stroke-width="1.5" fill="none"/>
    <circle cx="-5" cy="8" r="5" fill="url(#grapeGrad)"/>
    <circle cx="5" cy="8" r="5" fill="url(#grapeGrad)"/>
    <circle cx="0" cy="7" r="5" fill="url(#grapeGrad)"/>
    <circle cx="-3" cy="16" r="4.5" fill="url(#grapeGrad)"/>
    <circle cx="4" cy="16" r="4.5" fill="url(#grapeGrad)"/>
    <circle cx="0" cy="23" r="4" fill="url(#grapeGrad)"/>
    <circle cx="2" cy="29" r="3.5" fill="url(#grapeGrad)"/>
    <circle cx="-4" cy="6" r="2" fill="white" opacity="0.2"/>
    <circle cx="1" cy="5" r="1.5" fill="white" opacity="0.15"/>
  </g>

  <!-- === TENDRILS (curly vine shoots) === -->
  <g stroke="#4CAF50" stroke-width="1.2" fill="none" opacity="0.7">
    <path d="M135,195 Q130,185 135,180 Q140,175 138,168 Q136,162 140,158"/>
    <path d="M220,193 Q225,183 222,177 Q219,172 223,165"/>
    <path d="M290,192 Q285,182 288,176 Q291,170 287,163"/>
    <path d="M380,190 Q385,180 382,174 Q379,168 383,161"/>
    <path d="M455,189 Q450,179 453,173 Q456,167 452,160"/>
    <path d="M540,190 Q545,180 542,174 Q539,168 543,161"/>
    <path d="M610,191 Q605,181 608,175 Q611,169 607,162"/>
    <path d="M700,192 Q705,182 702,176 Q699,170 703,163"/>
  </g>

  <!-- === LARGER DECORATIVE LEAVES (5-lobed grape leaves) === -->
  <!-- Large leaf near stake 2 -->
  <g transform="translate(240,180) rotate(-20)">
    <path d="M0,5 Q-8,-5 -15,-15 Q-10,-10 -18,-8 Q-10,-5 -12,2 Q-8,0 0,5 Q-3,-2 -5,-8 Q0,-5 0,5Z" fill="#4CAF50" opacity="0.8"/>
    <path d="M0,5 Q8,-5 15,-15 Q10,-10 18,-8 Q10,-5 12,2 Q8,0 0,5Z" fill="#388E3C" opacity="0.8"/>
    <line x1="0" y1="5" x2="0" y2="-12" stroke="#2D5016" stroke-width="0.5" opacity="0.5"/>
  </g>

  <!-- Large leaf near stake 4 -->
  <g transform="translate(560,178) rotate(15)">
    <path d="M0,5 Q-8,-5 -15,-15 Q-10,-10 -18,-8 Q-10,-5 -12,2 Q-8,0 0,5 Q-3,-2 -5,-8 Q0,-5 0,5Z" fill="#4CAF50" opacity="0.8"/>
    <path d="M0,5 Q8,-5 15,-15 Q10,-10 18,-8 Q10,-5 12,2 Q8,0 0,5Z" fill="#388E3C" opacity="0.8"/>
    <line x1="0" y1="5" x2="0" y2="-12" stroke="#2D5016" stroke-width="0.5" opacity="0.5"/>
  </g>

  <!-- Leaves along bottom wire for fullness -->
  <g transform="translate(170,322) rotate(5)">
    <path d="M0,0 Q-9,-11 -3,-18 Q0,-14 3,-18 Q9,-11 0,0Z" fill="url(#leafGrad2)" opacity="0.6"/>
  </g>
  <g transform="translate(340,320) rotate(-8)">
    <path d="M0,0 Q-9,-11 -3,-18 Q0,-14 3,-18 Q9,-11 0,0Z" fill="url(#leafGrad1)" opacity="0.6"/>
  </g>
  <g transform="translate(490,322) rotate(10)">
    <path d="M0,0 Q-9,-11 -3,-18 Q0,-14 3,-18 Q9,-11 0,0Z" fill="url(#leafGrad2)" opacity="0.6"/>
  </g>
  <g transform="translate(660,320) rotate(-6)">
    <path d="M0,0 Q-9,-11 -3,-18 Q0,-14 3,-18 Q9,-11 0,0Z" fill="url(#leafGrad1)" opacity="0.6"/>
  </g>

  <!-- Subtle sun glow in top-right -->
  <radialGradient id="sunGlow" cx="0.85" cy="0.1" r="0.25">
    <stop offset="0%" stop-color="#FFF9C4" stop-opacity="0.4"/>
    <stop offset="100%" stop-color="#FFF9C4" stop-opacity="0"/>
  </radialGradient>
  <rect x="0" y="0" width="800" height="500" fill="url(#sunGlow)"/>
</svg>